<svg width="40" height="40" viewBox="0 0 40 40" fill="none" xmlns="http://www.w3.org/2000/svg">
<g clip-path="url(#clip0_1_12)">
<g filter="url(#filter0_d_1_12)">
<path d="M8.22333 21.6192L7.09809 15.2376L9.22527 14.8625L12.0825 20.7011L11.3114 20.837L11.9995 14.3734L14.1355 13.9967L15.2608 20.3783L13.9135 20.6158L12.8555 14.6154L13.086 14.5748L12.4157 20.88L11.0064 21.1284L8.24712 15.4828L8.4687 15.4437L9.51737 21.391L8.22333 21.6192ZM18.3746 19.9206C17.8723 20.0092 17.4179 19.9888 17.0113 19.8594C16.6036 19.7242 16.2651 19.4975 15.9957 19.1794C15.7323 18.8603 15.56 18.4703 15.4787 18.0094C15.3964 17.5426 15.425 17.1172 15.5644 16.7332C15.7087 16.3422 15.9468 16.0169 16.2788 15.7573C16.6097 15.4918 17.0174 15.3163 17.502 15.2309C17.9688 15.1486 18.3902 15.1718 18.7663 15.3004C19.1423 15.4291 19.4546 15.6451 19.703 15.9486C19.9515 16.2521 20.1159 16.6313 20.1961 17.0863C20.2128 17.1808 20.2254 17.27 20.2341 17.3537C20.2417 17.4316 20.2459 17.507 20.2466 17.58L16.329 18.2708L16.1743 17.3933L19.0194 16.8916L18.8171 17.0918C18.7525 16.7255 18.6165 16.4722 18.409 16.3321C18.2064 16.1851 17.9544 16.1381 17.653 16.1913C17.3044 16.2527 17.0534 16.4188 16.9001 16.6896C16.7527 16.9593 16.7207 17.3305 16.804 17.8032C16.8853 18.2641 17.0403 18.5901 17.269 18.7813C17.5035 18.9715 17.8129 19.0327 18.1969 18.9649C18.4097 18.9274 18.5866 18.8597 18.7277 18.7617C18.8688 18.6637 18.9637 18.5282 19.0124 18.3551L20.2621 18.1347C20.1915 18.598 19.9984 18.9885 19.6828 19.3061C19.372 19.6168 18.9359 19.8216 18.3746 19.9206ZM23.5506 19.0079C23.0483 19.0965 22.5939 19.0761 22.1873 18.9468C21.7796 18.8115 21.4411 18.5848 21.1718 18.2668C20.9083 17.9477 20.736 17.5577 20.6547 17.0968C20.5724 16.63 20.601 16.2046 20.7404 15.8205C20.8847 15.4295 21.1228 15.1042 21.4548 14.8446C21.7857 14.5791 22.1935 14.4037 22.678 14.3182C23.1448 14.2359 23.5662 14.2591 23.9423 14.3877C24.3183 14.5164 24.6306 14.7325 24.879 15.0359C25.1275 15.3394 25.2919 15.7186 25.3721 16.1736C25.3888 16.2681 25.4014 16.3573 25.4101 16.4411C25.4177 16.5189 25.4219 16.5943 25.4226 16.6673L21.505 17.3581L21.3503 16.4806L24.1954 15.979L23.9931 16.1791C23.9285 15.8128 23.7925 15.5596 23.585 15.4195C23.3824 15.2724 23.1304 15.2255 22.829 15.2786C22.4804 15.3401 22.2295 15.5062 22.0761 15.7769C21.9287 16.0466 21.8967 16.4178 21.9801 16.8905C22.0613 17.3514 22.2163 17.6774 22.445 17.8686C22.6795 18.0588 22.9889 18.12 23.373 18.0523C23.5857 18.0148 23.7626 17.947 23.9037 17.849C24.0448 17.751 24.1398 17.6155 24.1884 17.4424L25.4382 17.222C25.3675 17.6853 25.1744 18.0758 24.8588 18.3935C24.548 18.7041 24.1119 18.909 23.5506 19.0079ZM28.5382 18.1376C27.9591 18.2398 27.5033 18.177 27.1707 17.9492C26.843 17.7146 26.6286 17.3107 26.5275 16.7375L25.8352 12.8111L27.0771 12.0803L27.8648 16.5474C27.9002 16.7483 27.9829 16.8891 28.1129 16.9697C28.2429 17.0504 28.4261 17.0699 28.6624 17.0282C28.751 17.0126 28.8322 16.9891 28.9059 16.9579C28.9796 16.9266 29.0527 16.8924 29.1254 16.8552L29.3036 17.8656C29.234 17.9205 29.1305 17.9723 28.9928 18.0209C28.8611 18.0685 28.7095 18.1074 28.5382 18.1376ZM25.3495 14.9804L25.1713 13.97L28.5128 13.3808L28.6909 14.3912L25.3495 14.9804ZM10.1335 32.4521L9.00822 26.0705L11.1354 25.6954L13.9927 31.534L13.2216 31.6699L13.9096 25.2063L16.0457 24.8296L17.1709 31.2112L15.8237 31.4487L14.7656 25.4483L14.9961 25.4077L14.3258 31.7128L12.9165 31.9613L10.1573 26.3157L10.3788 26.2766L11.4275 32.2239L10.1335 32.4521ZM20.2847 30.7535C19.7825 30.8421 19.328 30.8217 18.9214 30.6923C18.5137 30.5571 18.1752 30.3304 17.9059 30.0123C17.6425 29.6932 17.4701 29.3032 17.3889 28.8423C17.3065 28.3755 17.3351 27.9501 17.4745 27.5661C17.6188 27.1751 17.857 26.8498 18.1889 26.5902C18.5199 26.3247 18.9276 26.1492 19.4121 26.0638C19.8789 25.9815 20.3003 26.0046 20.6764 26.1333C21.0524 26.262 21.3647 26.478 21.6132 26.7815C21.8616 27.0849 22.026 27.4642 22.1062 27.9191C22.1229 28.0137 22.1356 28.1028 22.1442 28.1866C22.1519 28.2645 22.156 28.3399 22.1567 28.4129L18.2391 29.1036L18.0844 28.2262L20.9295 27.7245L20.7272 27.9247C20.6626 27.5583 20.5266 27.3051 20.3191 27.165C20.1165 27.018 19.8645 26.971 19.5632 27.0241C19.2145 27.0856 18.9636 27.2517 18.8103 27.5225C18.6628 27.7922 18.6308 28.1634 18.7142 28.6361C18.7954 29.0969 18.9504 29.423 19.1791 29.6142C19.4137 29.8043 19.723 29.8656 20.1071 29.7978C20.3198 29.7603 20.4967 29.6926 20.6378 29.5946C20.779 29.4966 20.8739 29.361 20.9226 29.188L22.1723 28.9676C22.1017 29.4309 21.9085 29.8214 21.5929 30.139C21.2821 30.4497 20.8461 30.6545 20.2847 30.7535ZM25.9813 29.6577C25.9229 29.5339 25.8718 29.3998 25.828 29.2552C25.7902 29.1095 25.754 28.9392 25.7197 28.7442L25.6842 28.7505L25.3076 26.6144C25.2753 26.4312 25.1882 26.3004 25.0464 26.2218C24.9095 26.1363 24.7229 26.1144 24.4865 26.156C24.262 26.1956 24.0885 26.2658 23.9662 26.3666C23.8497 26.4663 23.7838 26.5937 23.7685 26.7487L22.5011 26.9722C22.4883 26.5541 22.6386 26.1803 22.9522 25.8508C23.2657 25.5214 23.7357 25.3014 24.362 25.191C25.012 25.0764 25.5339 25.1336 25.9276 25.3627C26.3214 25.5918 26.5662 25.9782 26.6621 26.5218L27.0137 28.516C27.0398 28.6638 27.0752 28.8129 27.12 28.9634C27.1697 29.1069 27.2333 29.2602 27.3108 29.4232L25.9813 29.6577ZM24.4192 30.0245C23.9702 30.1037 23.5929 30.0544 23.2874 29.8768C22.9809 29.6932 22.7942 29.4124 22.7276 29.0342C22.6536 28.6147 22.7508 28.2502 23.0192 27.9409C23.2924 27.6247 23.7059 27.3782 24.2596 27.2013L25.5474 26.7823L25.6833 27.5534L24.614 27.9156C24.3839 27.9928 24.221 28.0885 24.1254 28.2028C24.0298 28.3172 23.9966 28.4571 24.0258 28.6225C24.0518 28.7702 24.1248 28.8731 24.2447 28.9312C24.3646 28.9892 24.5132 29.0026 24.6905 28.9714C24.9682 28.9224 25.1915 28.8069 25.3605 28.6248C25.5284 28.4368 25.5946 28.2423 25.5592 28.0414L25.8083 28.7286C25.7377 29.0883 25.5845 29.3773 25.3489 29.5955C25.1132 29.8138 24.8033 29.9568 24.4192 30.0245ZM30.0501 29.0407C29.4711 29.1428 29.0152 29.08 28.6827 28.8523C28.3549 28.6177 28.1405 28.2138 28.0395 27.6406L27.3471 23.7142L28.5891 22.9834L29.3768 27.4505C29.4122 27.6514 29.4949 27.7922 29.6249 27.8728C29.7549 27.9535 29.938 27.973 30.1744 27.9313C30.263 27.9157 30.3442 27.8922 30.4179 27.861C30.4916 27.8297 30.5647 27.7955 30.6374 27.7583L30.8155 28.7687C30.746 28.8236 30.6424 28.8754 30.5048 28.924C30.373 28.9716 30.2215 29.0105 30.0501 29.0407ZM26.8614 25.8835L26.6833 24.8731L30.0247 24.2839L30.2029 25.2943L26.8614 25.8835Z" fill="#A80B0B"/>
</g>
<path d="M4 15V36H35V23.3425V17.589V15" stroke="#A80B0B" stroke-width="3"/>
<path d="M0 14L20.9231 3L40 14" stroke="#A80B0B" stroke-width="3"/>
</g>
<defs>
<filter id="filter0_d_1_12" x="3.09808" y="11.5195" width="32.1391" height="29.0301" filterUnits="userSpaceOnUse" color-interpolation-filters="sRGB">
<feFlood flood-opacity="0" result="BackgroundImageFix"/>
<feColorMatrix in="SourceAlpha" type="matrix" values="0 0 0 0 0 0 0 0 0 0 0 0 0 0 0 0 0 0 127 0" result="hardAlpha"/>
<feOffset dy="4"/>
<feGaussianBlur stdDeviation="2"/>
<feComposite in2="hardAlpha" operator="out"/>
<feColorMatrix type="matrix" values="0 0 0 0 0 0 0 0 0 0 0 0 0 0 0 0 0 0 0.25 0"/>
<feBlend mode="normal" in2="BackgroundImageFix" result="effect1_dropShadow_1_12"/>
<feBlend mode="normal" in="SourceGraphic" in2="effect1_dropShadow_1_12" result="shape"/>
</filter>
<clipPath id="clip0_1_12">
<rect width="40" height="40" fill="white"/>
</clipPath>
</defs>
</svg>
